<svg width="16" height="16" viewBox="0 0 16 16" fill="none" xmlns="http://www.w3.org/2000/svg">
<path fill-rule="evenodd" clip-rule="evenodd" d="M9.23265 5.67665L7.99998 3.33331L6.76731 5.67665C6.68023 5.84789 6.55419 5.99631 6.39931 6.10998C6.24369 6.22423 6.0636 6.30069 5.87331 6.33331L3.33331 6.83131L5.10665 8.95198C5.34916 9.21777 5.4636 9.57616 5.41998 9.93331L5.08265 12.6666L7.42131 11.5333C7.60173 11.4459 7.79952 11.4004 7.99998 11.4C8.18806 11.4006 8.37325 11.4463 8.53998 11.5333L10.9333 12.5966L10.596 9.89598C10.5533 9.53962 10.668 9.18235 10.91 8.91731L12.6666 6.83131L10.1266 6.33331C9.93612 6.30079 9.7558 6.22433 9.59998 6.10998C9.44535 5.99623 9.31954 5.84782 9.23265 5.67665Z" stroke="currentColor" stroke-width="1.5" stroke-linecap="round" stroke-linejoin="round"/>
</svg>
