<svg width="32" height="32" viewBox="0 0 32 32" fill="none" xmlns="http://www.w3.org/2000/svg">
<path fill-rule="evenodd" clip-rule="evenodd" d="M18.4654 11.3534L16 6.66669L13.5347 11.3534C13.3605 11.6958 13.1084 11.9927 12.7987 12.22C12.4874 12.4485 12.1273 12.6014 11.7467 12.6667L6.66669 13.6627L10.2134 17.904C10.6984 18.4356 10.9273 19.1524 10.84 19.8667L10.1654 25.3334L14.8427 23.0667C15.2035 22.8919 15.5991 22.8008 16 22.8C16.3762 22.8012 16.7466 22.8926 17.08 23.0667L21.8667 25.1934L21.192 19.792C21.1068 19.0793 21.336 18.3648 21.82 17.8347L25.3334 13.6627L20.2534 12.6667C19.8723 12.6016 19.5117 12.4487 19.2 12.22C18.8908 11.9925 18.6391 11.6957 18.4654 11.3534Z" stroke="currentColor" stroke-width="1.5" stroke-linecap="round" stroke-linejoin="round"/>
</svg>
